Coordinates
version=1
nRows=21
nColumns=33
inDegrees=yes

Units are S.I. units (second, meters, Newtons, ...)
Angles are in degrees.

endheader
time	ground_thorax_rot_x	ground_thorax_rot_y	ground_thorax_rot_z	ground_thorax_tx	ground_thorax_ty	ground_thorax_tz	clav_prot_r	clav_elev_r	scapula_abduction_r	scapula_elevation_r	scapula_upward_rot_r	scapula_winging_r	shoulder_elv_r	plane_of_elev_r	axial_rot_r	elbow_flexion_r	pro_sup_r	wrist_flex_r	wrist_dev_r	clav_prot_l	clav_elev_l	scapula_abduction_l	scapula_elevation_l	scapula_upward_rot_l	scapula_winging_l	shoulder_elv_l	plane_of_elev_l	axial_rot_l	elbow_flexion_l	pro_sup_l	wrist_flex_l	wrist_dev_l
      1.67000000	      0.90425682	     -1.10572824	     -7.31305724	     -0.08412748	      1.04953601	      0.00190385	    -13.85510726	     -6.67991056	    -14.29430089	     -1.02515360	      7.12970595	      0.00409856	     53.77706804	    -49.51296196	     62.80213290	     59.54043521	      8.30158794	     18.76742858	      6.65256007	     -7.62247613	     -3.92374824	      7.70752197	     -4.97394368	     -5.16113603	     -1.58303877	     54.80973312	    -54.86227676	    -43.55303033	     58.25203669	      9.27169844	     -2.28343444	    -24.99999983
      1.68000000	      0.94805647	     -1.00669651	     -6.92316405	     -0.08400306	      1.04953342	      0.00176994	    -13.96766962	     -6.51105757	    -14.37979790	     -0.97679063	      7.42259590	     -0.10672694	     54.41012062	    -49.76679718	     63.48315741	     60.04700145	      9.09859830	     19.04450409	      7.64723928	     -7.59538245	     -3.86036811	      7.60691994	     -4.96187624	     -4.97557094	     -1.52006913	     55.42403872	    -55.41031636	    -44.51515146	     59.00622746	      9.95789066	     -2.72208239	    -24.99999983
      1.69000000	      0.93824883	     -1.01347450	     -7.19524111	     -0.08393405	      1.04939127	      0.00174864	    -13.97657249	     -6.46274694	    -14.31425010	     -0.99347153	      7.60134966	     -0.16748720	     54.53362130	    -49.61602425	     63.50029331	     60.60622107	      9.17901955	     19.18688626	      7.72051855	     -7.59555418	     -3.79822564	      7.56407994	     -4.95647879	     -4.81003720	     -1.46862402	     55.59453572	    -55.33336614	    -44.55810734	     59.57002129	     10.01964632	     -2.82039146	    -24.99999983
      1.70000000	      0.97380253	     -0.98717267	     -7.05576857	     -0.08384406	      1.04956960	      0.00168709	    -14.02632019	     -6.38561106	    -14.29455230	     -1.00723326	      7.84339864	     -0.24654587	     55.23442113	    -49.67424294	     64.22554547	     61.35042115	      9.94626324	     19.26982737	      8.55604844	     -7.63423043	     -3.83412434	      7.56203376	     -4.85503538	     -4.63065982	     -1.44301948	     56.25657934	    -55.71397193	    -45.31898532	     60.34245295	     10.57863147	     -2.96090155	    -24.99999983
      1.71000000	      0.96098070	     -0.96385577	     -7.30417368	     -0.08377007	      1.04944550	      0.00161800	    -14.02049076	     -6.26193375	    -14.21081280	     -0.96151699	      8.03995738	     -0.33713941	     55.37074494	    -49.54599117	     64.23819036	     61.99564073	      9.97085112	     19.42740502	      8.58453385	     -7.63656239	     -3.70095195	      7.52024164	     -4.89579741	     -4.41517364	     -1.36864945	     56.43275876	    -55.62892520	    -45.30495880	     61.04163770	     10.57697169	     -3.02022584	    -24.99999983
      1.72000000	      0.95397017	     -0.99110897	     -7.47990566	     -0.08380618	      1.04923366	      0.00155013	    -13.97983043	     -6.07559690	    -14.05399432	     -0.87553973	      8.29010543	     -0.46458415	     55.58109750	    -49.41897395	     64.36374257	     62.70423445	     10.02520892	     19.60185526	      8.69232154	     -7.58962774	     -3.48535276	      7.40702476	     -5.01216596	     -4.19778620	     -1.26204285	     56.62789098	    -55.61727255	    -45.41102956	     61.88581466	     10.58438985	     -3.03879596	    -24.99999983
      1.73000000	      1.11105966	     -1.00007204	     -7.38581867	     -0.08332844	      1.04975593	      0.00156949	    -14.19425223	     -6.14083798	    -14.19287112	     -1.08207794	      8.71001058	     -0.52119341	     57.01055614	    -49.51986033	     65.56144704	     64.05773710	     11.24246711	     19.33556667	     10.10052543	     -7.81910128	     -3.84074147	      7.63312215	     -4.57285295	     -3.90859457	     -1.33277517	     57.71052427	    -56.29040465	    -46.53688800	     62.92704755	     10.83822633	     -2.48925607	    -24.99999983
      1.74000000	      1.05418126	     -1.05240033	     -7.52081957	     -0.08338525	      1.04955449	      0.00153003	    -14.13257622	     -5.90676069	    -14.01887931	     -0.94612870	      8.94060391	     -0.66227050	     57.22419782	    -49.34442722	     65.68686231	     64.85192614	     11.26608992	     19.53579609	     10.12073020	     -7.76069795	     -3.52727547	      7.51811574	     -4.77601624	     -3.68281612	     -1.19936604	     57.95737823	    -56.28625208	    -46.62160971	     63.91223830	     10.77591164	     -2.51259878	    -24.99999983
      1.75000000	      1.02388434	     -1.03905789	     -7.35072547	     -0.08349563	      1.04935156	      0.00144529	    -14.03840504	     -5.51431802	    -13.81277238	     -0.67526040	      9.19494023	     -0.86504233	     57.67180881	    -49.31145779	     66.17625740	     65.80095698	     11.43766408	     19.71166997	     10.38921158	     -7.70180985	     -3.16499992	      7.40188570	     -5.01111354	     -3.42411433	     -1.05525322	     58.34212839	    -56.48585006	    -46.93557858	     64.98219953	     10.65140650	     -2.38390941	    -24.99999983
      1.76000000	      1.06230716	     -1.10958825	     -7.28750189	     -0.08362278	      1.04945124	      0.00149229	    -13.98393280	     -5.24886833	    -13.58594935	     -0.55682149	      9.56364087	     -1.04910565	     58.41112166	    -49.21244101	     66.91114209	     66.99323730	     11.80827547	     19.78977596	     10.95055566	     -7.65963298	     -3.02497349	      7.26414977	     -5.04469734	     -3.17012532	     -0.95280378	     58.87992441	    -56.76483311	    -47.49997296	     66.02274123	     10.32552808	     -2.02554961	    -24.99999983
      1.77000000	      1.04259898	     -1.09232899	     -7.60961858	     -0.08362743	      1.04945382	      0.00139224	    -13.95094551	     -5.05527701	    -13.40218042	     -0.48885305	      9.88908802	     -1.19558266	     58.63341380	    -48.98770943	     66.94107170	     67.93224902	     11.79010410	     20.01385261	     10.98347161	     -7.63318578	     -2.81841636	      7.14796125	     -5.11574516	     -2.85498414	     -0.83221951	     59.10236308	    -56.62396366	    -47.48933873	     67.10792779	     10.20435861	     -2.05567327	    -24.99999983
      1.78000000	      0.99075690	     -1.14006982	     -7.77496416	     -0.08362256	      1.04932423	      0.00144379	    -13.92746185	     -4.77859162	    -13.22495815	     -0.36520708	     10.26887314	     -1.37904730	     58.91000735	    -48.80629670	     67.05695821	     69.02601504	     11.78501698	     20.27085955	     11.07795340	     -7.59358937	     -2.52908471	      7.02829288	     -5.26300189	     -2.54145757	     -0.69456426	     59.36261552	    -56.61502184	    -47.54427345	     68.22577957	     10.06185644	     -2.04826508	    -24.99999983
      1.79000000	      1.29087615	     -1.18790232	     -7.62688201	     -0.08321794	      1.05007583	      0.00144755	    -14.08079389	     -4.78983129	    -13.14707598	     -0.58567597	     10.89911743	     -1.51724778	     60.74870576	    -48.91214340	     68.57441678	     70.75283406	     12.68819221	     19.92043135	     12.48930875	     -7.74758624	     -3.00736499	      7.07148806	     -4.71136987	     -2.23853887	     -0.74273599	     60.37536810	    -57.39203108	    -48.68467363	     69.47746248	      8.46499694	     -0.97335459	    -24.99999983
      1.80000000	      1.15953671	     -1.23822599	     -7.76268841	     -0.08318118	      1.05000913	      0.00150447	    -14.04952474	     -4.54230037	    -12.98468432	     -0.46300859	     11.20560066	     -1.67758755	     60.94692828	    -48.65050147	     68.60927809	     71.79644173	     12.63788264	     20.17952207	     12.45978638	     -7.71163288	     -2.66613803	      6.97017033	     -4.90930017	     -1.93493384	     -0.59622974	     60.67876270	    -57.32580678	    -48.68466684	     70.62192823	      8.27251952	     -1.00382296	    -24.99999983
      1.81000000	      1.07408703	     -1.26391088	     -7.86094812	     -0.08323218	      1.04994638	      0.00153712	    -13.99665010	     -4.25411304	    -12.77837658	     -0.31358223	     11.54271925	     -1.85641589	     61.20010437	    -48.40879458	     68.72031175	     72.89882862	     12.59582550	     20.44141276	     12.49517084	     -7.66421545	     -2.35325803	      6.84016915	     -5.07768436	     -1.61869842	     -0.45179801	     60.95363369	    -57.24556224	    -48.71707558	     71.76323271	      8.05907173	     -1.00532219	    -24.99999983
      1.82000000	      1.01327120	     -1.27884908	     -7.90884532	     -0.08325867	      1.04991766	      0.00155762	    -13.94609420	     -3.95236488	    -12.56864486	     -0.15816603	     11.89919748	     -2.04463564	     61.50097213	    -48.19019964	     68.86693498	     74.00256737	     12.55960911	     20.68318565	     12.57101139	     -7.62831677	     -2.06835004	      6.71783868	     -5.21750029	     -1.29646662	     -0.31148787	     61.20314225	    -57.16590605	    -48.74671786	     72.89792232	      7.80697078	     -0.98846078	    -24.99999983
      1.83000000	      1.27483902	     -1.36898715	     -7.76331244	     -0.08299199	      1.05066433	      0.00165034	    -13.99787963	     -4.04259990	    -12.43056917	     -0.35567547	     12.26556123	     -2.10258808	     63.41015962	    -48.08503070	     70.26353141	     75.89900354	     12.95577442	     20.06995629	     13.63108126	     -7.79043454	     -2.47915456	      6.83162470	     -4.77409584	     -1.11450798	     -0.37868461	     61.96456037	    -57.57479102	    -49.56787374	     73.87085192	      4.47286821	      0.09378351	    -24.99999983
      1.84000000	      1.14615168	     -1.33805837	     -7.86471730	     -0.08289223	      1.05067318	      0.00163662	    -13.97231021	     -3.82103733	    -12.27344279	     -0.25424421	     12.56544474	     -2.25442158	     63.55719896	    -47.81765652	     70.21947253	     76.89188253	     12.85025474	     20.32163906	     13.57850064	     -7.77956494	     -2.21751971	      6.73659856	     -4.88105375	     -0.76246426	     -0.24450042	     62.21550574	    -57.37730231	    -49.47577744	     74.99026267	      4.28191070	      0.05013312	    -24.99999983
      1.85000000	      1.06246826	     -1.35194735	     -7.86845282	     -0.08282372	      1.05069797	      0.00164052	    -13.95311856	     -3.59076182	    -12.11208382	     -0.15423026	     12.89569358	     -2.40883416	     63.77447536	    -47.55583495	     70.21953913	     77.91731439	     12.73268758	     20.53786124	     13.57291428	     -7.76535021	     -1.98226076	      6.64596979	     -4.98260081	     -0.45816756	     -0.12110062	     62.39471239	    -57.18585127	    -49.42366860	     76.08321288	      3.97709164	      0.04112635	    -24.99999983
      1.86000000	      1.19760481	     -1.40648711	     -7.81557991	     -0.08279689	      1.05104404	      0.00161930	    -13.93276397	     -3.58911689	    -12.01656267	     -0.18696731	     13.00362468	     -2.43844677	     65.09183311	    -47.12645332	     70.94587904	     79.52126522	     11.94768298	     19.78026027	     14.18539284	     -7.85170257	     -2.05307229	      6.77591099	     -4.90836899	     -0.43627283	     -0.15775424	     62.59251910	    -56.89514835	    -49.61394739	     76.80911335	     -0.71295274	      0.75684676	    -24.99999983
      1.87000000	      1.08374224	     -1.35469919	     -7.82444541	     -0.08263029	      1.05106181	      0.00164719	    -13.92978699	     -3.42203328	    -11.88923438	     -0.12846258	     13.29126611	     -2.56460346	     65.20593465	    -46.89215771	     70.83493153	     80.43849325	     11.80639579	     20.01697883	     14.13678884	     -7.85951285	     -1.91211908	      6.68121945	     -4.90812695	     -0.08867537	     -0.04332999	     62.77581961	    -56.60884646	    -49.48536002	     77.81187307	     -0.90162181	      0.72101625	    -24.99999983
